<?xml version="1.0" encoding="iso-8859-1"?><svg version="1" xmlns="http://www.w3.org/2000/svg" width="440" height="440"><path fill="#b2b2b2" d="M77 191v58c0 21 17 38 38 38h57v-77h-57v20h38v38h-38c-12 0-19-8-19-19v-58c0-11 7-19 19-19h57v-19h-57c-21 0-38 17-38 38zM191 172h19v96h-19v19h58v-19h-19v-96h19v-19h-58z"/><path fill="#b2b2b2" d="M383 96H57c-32 0-57 24-57 57v134c0 32 25 57 57 57h326c32 0 57-25 57-57V153c0-33-25-57-57-57zm38 191c0 21-17 38-38 38H57c-21 0-38-17-38-38V153c0-21 17-38 38-38h326c21 0 38 17 38 38v134z"/><path fill="#b2b2b2" d="M268 287h19v-57h57v-20h-57v-38h76v-19h-95z"/></svg>