<?xml version="1.0" encoding="iso-8859-1"?><svg version="1" xmlns="http://www.w3.org/2000/svg" width="471" height="471"><path fill="#b2b2b2" d="M327 0H90C74 0 61 13 61 29v413c0 16 13 29 29 29h290c16 0 29-13 29-29V89L327 0zm7 43l36 39h-36V43zm51 399c0 2-2 4-5 4H90c-2 0-4-2-4-4V29c0-3 2-5 4-5h220v70c0 7 5 13 12 13h63v335zM128 129h206a9 9 0 0 1 0 18H128a9 9 0 0 1 0-18zm215 70c0 5-4 9-9 9H128a9 9 0 0 1 0-18h206c5 0 9 4 9 9zm0 59c0 5-4 9-9 9H128a9 9 0 0 1 0-18h206c5 0 9 4 9 9zm0 60c0 5-4 9-9 9H128a9 9 0 0 1 0-18h206c5 0 9 4 9 9z"/></svg>