<?xml version="1.0" encoding="iso-8859-1"?><svg version="1" xmlns="http://www.w3.org/2000/svg" viewBox="0 0 512 512"><path fill="#b2b2b2" d="M495 38H85c-9 0-17 8-17 17v18H51c-9 0-17 7-17 17v17H17c-9 0-17 7-17 17v333c0 9 8 17 17 17h410c9 0 17-8 17-17v-18h17c9 0 17-7 17-17v-17h17c9 0 17-7 17-17V55c0-9-8-17-17-17zM17 124h410v190l-45-51c-3-4-10-4-13 0l-54 62-147-131c-3-3-8-3-12 0L17 318V124zm410 307v26H17V341l145-129 148 131 6 3 6-3 53-61 52 58v91zm34-9h-17V124c0-10-8-17-17-17H51V90h410v332zm34-34h-17V90c0-10-8-17-17-17H85V55h410v333z"/><path fill="#b2b2b2" d="M307 175a34 34 0 1 0 0 68 34 34 0 0 0 0-68zm0 51a17 17 0 1 1 0-34 17 17 0 0 1 0 34z"/></svg>